# xmcd CD database file
#
# Track frame offsets:
#	150
#	23607
#	39229
#	70738
#	91667
#	112567
#	148485
#	168131
#
# Disc length: 2492 seconds
#
# Revision: 0
# Processed by: cddbd v1.5.2PL0 Copyright (c) Steve Scherf et al.
# Submitted via: CDex 1.51
#
DISCID=5409ba08
DTITLE=purple bluze - sometimes
DYEAR=2005
DGENRE=Blues
TTITLE0=sometimes
TTITLE1=message to love
TTITLE2=red house
TTITLE3=wonderment
TTITLE4=smoke on the water
TTITLE5=dog shit
TTITLE6=cold shot
TTITLE7=angel
EXTD=YEAR: 2005
EXTT0=
EXTT1=
EXTT2=
EXTT3=
EXTT4=
EXTT5=
EXTT6=
EXTT7=
PLAYORDER=
